<?xml version="1.0" encoding="UTF-8"?>
<svg xmlns="http://www.w3.org/2000/svg" width="1024" height="600" viewBox="0 0 1024 600" font-family="sans-serif">
  <defs>
    <linearGradient id="gradV" x1="0" y1="0" x2="0" y2="1">
      <stop offset="0%" stop-color="#4499FF" stop-opacity="0.30"/>
      <stop offset="100%" stop-color="#070F07" stop-opacity="0"/>
    </linearGradient>
    <linearGradient id="gradI" x1="0" y1="0" x2="0" y2="1">
      <stop offset="0%" stop-color="#FFAA22" stop-opacity="0.30"/>
      <stop offset="100%" stop-color="#070F07" stop-opacity="0"/>
    </linearGradient>
    <linearGradient id="gradP" x1="0" y1="0" x2="0" y2="1">
      <stop offset="0%" stop-color="#FF44CC" stop-opacity="0.30"/>
      <stop offset="100%" stop-color="#070F07" stop-opacity="0"/>
    </linearGradient>
  </defs>

  <!-- Page background -->
  <rect width="1024" height="600" fill="#111111"/>

  <!-- ============ TOP_LAYER HEADER (y=0..80) ============ -->
  <rect x="0" y="0" width="1024" height="80" fill="#141414"/>
  <text x="20" y="46" fill="#AAAAAA" font-size="20">--:--</text>
  <text x="420" y="46" fill="#333333" font-size="20">SD  USB  NFS  HA  DPS</text>
  <text x="900" y="46" fill="#888888" font-size="18">IN  --.-V</text>

  <!-- ============ CHART HEADER STRIP (y=80..112) ============ -->
  <rect x="0" y="80" width="1024" height="32" fill="#0D0D0D"/>
  <text x="40"  y="102" fill="#4499FF" font-size="14">Vout  --.-V</text>
  <text x="360" y="102" fill="#FFAA22" font-size="14">Iout  -.---A</text>
  <text x="660" y="102" fill="#FF44CC" font-size="14">Pout  --.-W</text>
  <text x="920" y="102" fill="#444444" font-size="12">60s window</text>

  <!-- ============ VOLTAGE ROW (y=112..248) ============ -->
  <rect x="0" y="112" width="1024" height="136" rx="8" ry="8" fill="#0C1A0C" stroke="#004408" stroke-width="1"/>
  <!-- Unit label box -->
  <text x="30" y="185" fill="#4499FF" font-size="20" text-anchor="middle">V</text>
  <text x="30" y="205" fill="#224466" font-size="12" text-anchor="middle">out</text>
  <!-- Chart plot area (x=60, y=120, w=948, h=120) -->
  <g>
    <rect x="60" y="120" width="948" height="120" fill="#070F07" stroke="#003306" stroke-width="1"/>
    <!-- Grid: 4 horizontal, 6 vertical -->
    <g stroke="#1A2A1A" stroke-width="1">
      <line x1="60"  y1="144" x2="1008" y2="144"/>
      <line x1="60"  y1="168" x2="1008" y2="168"/>
      <line x1="60"  y1="192" x2="1008" y2="192"/>
      <line x1="60"  y1="216" x2="1008" y2="216"/>
      <line x1="195" y1="120" x2="195" y2="240"/>
      <line x1="330" y1="120" x2="330" y2="240"/>
      <line x1="465" y1="120" x2="465" y2="240"/>
      <line x1="600" y1="120" x2="600" y2="240"/>
      <line x1="735" y1="120" x2="735" y2="240"/>
      <line x1="870" y1="120" x2="870" y2="240"/>
    </g>
    <!-- Gradient fill under curve -->
    <path d="M 60,200 L 120,190 L 180,170 L 240,175 L 300,160 L 360,150 L 420,158 L 480,145 L 540,140 L 600,148 L 660,135 L 720,142 L 780,138 L 840,130 L 900,136 L 960,132 L 1008,128 L 1008,240 L 60,240 Z"
          fill="url(#gradV)"/>
    <!-- Line -->
    <path d="M 60,200 L 120,190 L 180,170 L 240,175 L 300,160 L 360,150 L 420,158 L 480,145 L 540,140 L 600,148 L 660,135 L 720,142 L 780,138 L 840,130 L 900,136 L 960,132 L 1008,128"
          fill="none" stroke="#4499FF" stroke-width="2"/>
  </g>

  <!-- ============ CURRENT ROW (y=248..384) ============ -->
  <rect x="0" y="248" width="1024" height="136" rx="8" ry="8" fill="#0C1A0C" stroke="#004408" stroke-width="1"/>
  <text x="30" y="321" fill="#FFAA22" font-size="20" text-anchor="middle">A</text>
  <text x="30" y="341" fill="#664422" font-size="12" text-anchor="middle">out</text>
  <g>
    <rect x="60" y="256" width="948" height="120" fill="#070F07" stroke="#003306" stroke-width="1"/>
    <g stroke="#1A2A1A" stroke-width="1">
      <line x1="60"  y1="280" x2="1008" y2="280"/>
      <line x1="60"  y1="304" x2="1008" y2="304"/>
      <line x1="60"  y1="328" x2="1008" y2="328"/>
      <line x1="60"  y1="352" x2="1008" y2="352"/>
      <line x1="195" y1="256" x2="195" y2="376"/>
      <line x1="330" y1="256" x2="330" y2="376"/>
      <line x1="465" y1="256" x2="465" y2="376"/>
      <line x1="600" y1="256" x2="600" y2="376"/>
      <line x1="735" y1="256" x2="735" y2="376"/>
      <line x1="870" y1="256" x2="870" y2="376"/>
    </g>
    <path d="M 60,340 L 120,320 L 180,330 L 240,300 L 300,315 L 360,290 L 420,305 L 480,285 L 540,295 L 600,278 L 660,290 L 720,270 L 780,285 L 840,260 L 900,275 L 960,265 L 1008,255 L 1008,376 L 60,376 Z"
          fill="url(#gradI)"/>
    <path d="M 60,340 L 120,320 L 180,330 L 240,300 L 300,315 L 360,290 L 420,305 L 480,285 L 540,295 L 600,278 L 660,290 L 720,270 L 780,285 L 840,260 L 900,275 L 960,265 L 1008,255"
          fill="none" stroke="#FFAA22" stroke-width="2"/>
  </g>

  <!-- ============ POWER ROW (y=384..520) ============ -->
  <rect x="0" y="384" width="1024" height="136" rx="8" ry="8" fill="#0C1A0C" stroke="#004408" stroke-width="1"/>
  <text x="30" y="457" fill="#FF44CC" font-size="20" text-anchor="middle">W</text>
  <text x="30" y="477" fill="#662266" font-size="12" text-anchor="middle">out</text>
  <g>
    <rect x="60" y="392" width="948" height="120" fill="#070F07" stroke="#003306" stroke-width="1"/>
    <g stroke="#1A2A1A" stroke-width="1">
      <line x1="60"  y1="416" x2="1008" y2="416"/>
      <line x1="60"  y1="440" x2="1008" y2="440"/>
      <line x1="60"  y1="464" x2="1008" y2="464"/>
      <line x1="60"  y1="488" x2="1008" y2="488"/>
      <line x1="195" y1="392" x2="195" y2="512"/>
      <line x1="330" y1="392" x2="330" y2="512"/>
      <line x1="465" y1="392" x2="465" y2="512"/>
      <line x1="600" y1="392" x2="600" y2="512"/>
      <line x1="735" y1="392" x2="735" y2="512"/>
      <line x1="870" y1="392" x2="870" y2="512"/>
    </g>
    <path d="M 60,480 L 120,460 L 180,440 L 240,455 L 300,420 L 360,430 L 420,410 L 480,425 L 540,400 L 600,415 L 660,395 L 720,410 L 780,398 L 840,408 L 900,392 L 960,402 L 1008,396 L 1008,512 L 60,512 Z"
          fill="url(#gradP)"/>
    <path d="M 60,480 L 120,460 L 180,440 L 240,455 L 300,420 L 360,430 L 420,410 L 480,425 L 540,400 L 600,415 L 660,395 L 720,410 L 780,398 L 840,408 L 900,392 L 960,402 L 1008,396"
          fill="none" stroke="#FF44CC" stroke-width="2"/>
  </g>

  <!-- ============ TOP_LAYER FOOTER / TABS (y=520..600) ============ -->
  <rect x="0"   y="520" width="341" height="72" fill="#111111"/>
  <rect x="341" y="520" width="341" height="72" fill="#1A1A1A"/>
  <rect x="341" y="590" width="341" height="2"  fill="#39FF14"/>
  <rect x="682" y="520" width="342" height="72" fill="#111111"/>
  <text x="170" y="562" fill="#555555" font-size="16" text-anchor="middle">MAIN</text>
  <text x="512" y="562" fill="#39FF14" font-size="16" text-anchor="middle">GRAPHS</text>
  <text x="853" y="562" fill="#555555" font-size="16" text-anchor="middle">SETTINGS</text>
</svg>
