<?xml version="1.0" encoding="UTF-8"?>
<svg xmlns="http://www.w3.org/2000/svg" width="1024" height="600" viewBox="0 0 1024 600" font-family="sans-serif">
  <!-- Page background -->
  <rect width="1024" height="600" fill="#111111"/>

  <!-- ============ TOP_LAYER HEADER (y=0..80) ============ -->
  <rect x="0" y="0" width="1024" height="80" fill="#141414"/>
  <text x="20"  y="46" fill="#AAAAAA" font-size="20">--:--</text>
  <text x="420" y="46" fill="#333333" font-size="20">SD  USB  NFS  HA  DPS</text>
  <text x="900" y="46" fill="#888888" font-size="18">IN  --.-V</text>

  <!-- ============ LEGEND HEADER STRIP (y=80..120) ============ -->
  <rect x="0" y="80" width="1024" height="40" fill="#0D0D0D"/>
  <circle cx="40"  cy="100" r="5" fill="#4499FF"/>
  <text   x="55"  y="106" fill="#4499FF" font-size="16">Vout  --.-V</text>
  <circle cx="360" cy="100" r="5" fill="#FFAA22"/>
  <text   x="375" y="106" fill="#FFAA22" font-size="16">Iout  -.---A</text>
  <circle cx="680" cy="100" r="5" fill="#FF44CC"/>
  <text   x="695" y="106" fill="#FF44CC" font-size="16">Pout  --.-W</text>
  <text   x="920" y="106" fill="#555555" font-size="12">60s  /  0-100%</text>

  <!-- ============ COMBINED CHART ROW (y=120..520) ============ -->
  <rect x="0" y="120" width="1024" height="400" rx="8" ry="8" fill="#0C1A0C" stroke="#004408" stroke-width="1"/>
  <!-- Chart plot area -->
  <rect x="12" y="132" width="1000" height="376" fill="#070F07" stroke="#003306" stroke-width="1"/>
  <!-- Grid: 5 horizontal, 6 vertical -->
  <g stroke="#1A2A1A" stroke-width="1">
    <line x1="12" y1="194.7" x2="1012" y2="194.7"/>
    <line x1="12" y1="257.3" x2="1012" y2="257.3"/>
    <line x1="12" y1="320.0" x2="1012" y2="320.0"/>
    <line x1="12" y1="382.7" x2="1012" y2="382.7"/>
    <line x1="12" y1="445.3" x2="1012" y2="445.3"/>
    <line x1="155" y1="132" x2="155" y2="508"/>
    <line x1="298" y1="132" x2="298" y2="508"/>
    <line x1="441" y1="132" x2="441" y2="508"/>
    <line x1="584" y1="132" x2="584" y2="508"/>
    <line x1="727" y1="132" x2="727" y2="508"/>
    <line x1="870" y1="132" x2="870" y2="508"/>
  </g>

  <!-- Voltage trace (around 65%) - blue -->
  <path d="M 12,264 L 71,258 L 131,252 L 190,255 L 250,248 L 309,244 L 369,252 L 428,240 L 488,236 L 547,244 L 607,232 L 666,240 L 726,228 L 785,234 L 845,224 L 904,232 L 964,226 L 1012,222"
        fill="none" stroke="#4499FF" stroke-width="2"/>

  <!-- Current trace (around 40%) - orange -->
  <path d="M 12,358 L 71,362 L 131,350 L 190,368 L 250,354 L 309,372 L 369,358 L 428,376 L 488,362 L 547,380 L 607,366 L 666,382 L 726,368 L 785,384 L 845,370 L 904,386 L 964,372 L 1012,378"
        fill="none" stroke="#FFAA22" stroke-width="2"/>

  <!-- Power trace (around 25%) - pink -->
  <path d="M 12,420 L 71,410 L 131,418 L 190,408 L 250,412 L 309,398 L 369,404 L 428,392 L 488,400 L 547,386 L 607,394 L 666,380 L 726,388 L 785,374 L 845,382 L 904,370 L 964,376 L 1012,368"
        fill="none" stroke="#FF44CC" stroke-width="2"/>

  <!-- ============ TOP_LAYER FOOTER / TABS (y=520..600) ============ -->
  <rect x="0"   y="520" width="341" height="72" fill="#111111"/>
  <rect x="341" y="520" width="341" height="72" fill="#1A1A1A"/>
  <rect x="341" y="590" width="341" height="2"  fill="#39FF14"/>
  <rect x="682" y="520" width="342" height="72" fill="#111111"/>
  <text x="170" y="562" fill="#555555" font-size="16" text-anchor="middle">MAIN</text>
  <text x="512" y="562" fill="#39FF14" font-size="16" text-anchor="middle">GRAPHS</text>
  <text x="853" y="562" fill="#555555" font-size="16" text-anchor="middle">SETTINGS</text>
</svg>
